# xmcd
#
# Track frame offsets:
#	150
#	12004
#	21503
#	35737
#	46658
#	57242
#	66745
#	83954
#	93644
#	102536
#	113580
#	124102
#	133130
#	141280
#	155637
#	164824
#	182482
#
# Disc length: 2595 seconds
#
# Revision: 1
# Processed by: cddbd v1.5.2PL0 Copyright (c) Steve Scherf et al.
# Submitted via: audiograbber 1.83.01
#
DISCID=f90a2111
DTITLE=RHYTHM TRAIN - BACK ON TRACK
DYEAR=1900
DGENRE=Country
TTITLE0=NIGHT TRAIN TO MEMPHIS
TTITLE1=LIVE FAST, LOVE HART, DIE YOUNG
TTITLE2=YOU NEARLY LOSE YOUR MIND
TTITLE3=GREATEST BIKE
TTITLE4=PLAY THE MUSIC LOUDER
TTITLE5=SLIP, SLIP, SLIPPIN' IN
TTITLE6=LOOKIN' BETTER EVRY BEER
TTITLE7=SETTIN' THE WOODS ON FIRE
TTITLE8=CRAZY BABY
TTITLE9=ROOTIE TOOTIE
TTITLE10=I' M SO LONESOME I COULD CRY
TTITLE11=MOVIE MAGG
TTITLE12=A JACK IS TRUE
TTITLE13=LONG BLACK TRAIN
TTITLE14=IT' S DRIVING ME CRAZY
TTITLE15=LEAVE ME ALONE
TTITLE16=RYTHM' TRAIN BOOGIE
EXTD=
EXTT0=
EXTT1=
EXTT2=
EXTT3=
EXTT4=
EXTT5=
EXTT6=
EXTT7=
EXTT8=
EXTT9=
EXTT10=
EXTT11=
EXTT12=
EXTT13=
EXTT14=
EXTT15=
EXTT16=
PLAYORDER=
